<svg aria-hidden="true" style="position: absolute; width: 0; height: 0; overflow: hidden;" version="1.1" xmlns="http://www.w3.org/2000/svg" xmlns:xlink="http://www.w3.org/1999/xlink">
<defs>
<symbol id="icon-collapse_arrow" viewBox="0 0 32 32">
<path d="M15 5.852l-12.953 12.68 1.406 1.438 11.547-11.32 11.555 11.32 1.391-1.438z"></path>
</symbol>
<symbol id="icon-company" viewBox="0 0 32 32">
<path d="M2.667 4v24h26.667v-18.667h-13.333v-5.333zM5.333 6.667h2.667v2.667h-2.667zM10.667 6.667h2.667v2.667h-2.667zM5.333 12h2.667v2.667h-2.667zM10.667 12h2.667v2.667h-2.667zM16 12h10.667v13.333h-10.667v-2.667h2.667v-2.667h-2.667v-2.667h2.667v-2.667h-2.667zM21.333 14.667v2.667h2.667v-2.667zM5.333 17.333h2.667v2.667h-2.667zM10.667 17.333h2.667v2.667h-2.667zM21.333 20v2.667h2.667v-2.667zM5.333 22.667h2.667v2.667h-2.667zM10.667 22.667h2.667v2.667h-2.667z"></path>
</symbol>
<symbol id="icon-expand_arrow" viewBox="0 0 32 32">
<path d="M3.453 8.031l-1.406 1.438 12.953 12.68 12.945-12.68-1.391-1.438-11.555 11.32z"></path>
</symbol>
<symbol id="icon-genealogy" viewBox="0 0 32 32">
<path d="M13.333 4v4.729l-4.734 4.604h-3.266v5.333h0.021l-1.479 4h-2.542v5.333h5.333v-5.182l1.37-3.708 1.297 3.557v5.333h5.333v-5.333h-2.495l-1.505-4.125v-3.5l5.339-5.188 5.328 5.099v3.714h0.036l-1.51 4h-2.526v5.333h5.333v-5.224l1.396-3.693 1.307 3.583h-0.036v5.333h5.333v-5.333h-2.458l-1.542-4.224v-5.109h-3.167l-4.833-4.625v-4.708z"></path>
</symbol>
<symbol id="icon-home" viewBox="0 0 32 32">
<path d="M16 2.802l-14.667 13.198h4v12h6.667v-9.333h8v9.333h6.667v-12h4l-5.333-4.802v-5.865h-2.667v3.469z"></path>
</symbol>
<symbol id="icon-layers" viewBox="0 0 32 32">
<path d="M16.012 4.1c-0.061-0.002-0.123 0.011-0.181 0.037l-13.6 6.3c-0.141 0.064-0.231 0.206-0.231 0.363s0.091 0.298 0.231 0.363l4.83 2.238-4.83 2.238c-0.141 0.064-0.231 0.206-0.231 0.363s0.091 0.298 0.231 0.363l4.83 2.238-4.83 2.238c-0.141 0.064-0.231 0.206-0.231 0.363s0.091 0.298 0.231 0.363l13.6 6.3c0.108 0.050 0.23 0.050 0.338 0l13.6-6.3c0.141-0.064 0.231-0.206 0.231-0.363s-0.091-0.298-0.231-0.363l-4.83-2.238 4.83-2.238c0.141-0.064 0.231-0.206 0.231-0.363s-0.091-0.298-0.231-0.363l-4.83-2.238 4.83-2.238c0.141-0.064 0.231-0.206 0.231-0.363s-0.091-0.298-0.231-0.363l-13.6-6.3c-0.050-0.023-0.102-0.036-0.156-0.037zM16 4.941l12.648 5.859-12.648 5.859-7.762-3.597c-0.031-0.020-0.066-0.036-0.102-0.047l-4.783-2.216zM8.012 13.842l0.536 0.247c-0.094 0.077-0.148 0.191-0.148 0.311 0 0.22 0.18 0.4 0.4 0.4s0.4-0.18 0.4-0.4c0-0.003 0-0.006 0-0.008l2.813 1.302c0.042 0.18 0.203 0.306 0.387 0.306 0.063 0 0.123-0.014 0.18-0.044l0.966 0.448c-0.197 0.027-0.345 0.195-0.345 0.395 0 0.22 0.18 0.4 0.4 0.4s0.4-0.18 0.4-0.4c0-0.077-0.022-0.15-0.063-0.214l1.894 0.877c0.108 0.050 0.23 0.050 0.338 0l1.894-0.877c-0.041 0.064-0.063 0.139-0.063 0.214 0 0.22 0.18 0.4 0.4 0.4s0.4-0.18 0.4-0.4c0-0.2-0.147-0.369-0.344-0.395l0.964-0.448c0.056 0.030 0.117 0.044 0.18 0.044 0.184 0 0.345-0.127 0.387-0.306l2.813-1.302c0 0.002 0 0.005 0 0.008 0 0.22 0.18 0.4 0.4 0.4s0.4-0.18 0.4-0.4c0-0.12-0.055-0.234-0.148-0.311l0.536-0.247 1.212 0.561c0.002 0.22 0.18 0.397 0.4 0.397 0.094 0 0.184-0.033 0.256-0.094l2.792 1.294-3.898 1.806c-0.072-0.127-0.205-0.206-0.35-0.206-0.22 0-0.4 0.18-0.4 0.4 0 0.048 0.009 0.097 0.027 0.142l-0.22 0.102-2.786 1.289c0.113-0.073 0.18-0.198 0.18-0.333 0-0.22-0.18-0.4-0.4-0.4s-0.4 0.18-0.4 0.4c0 0.22 0.18 0.4 0.4 0.4 0.039 0 0.077-0.006 0.113-0.017l-1.073 0.498c-0.069-0.053-0.153-0.081-0.239-0.081-0.212 0-0.387 0.166-0.4 0.377l-2.808 1.3c0.005-0.025 0.008-0.050 0.008-0.077 0-0.22-0.18-0.4-0.4-0.4s-0.4 0.18-0.4 0.4c0 0.027 0.003 0.052 0.008 0.077l-2.809-1.302c-0.012-0.209-0.188-0.375-0.398-0.375-0.086 0-0.17 0.028-0.239 0.081l-1.073-0.498c0.036 0.011 0.075 0.017 0.113 0.017 0.22 0 0.4-0.18 0.4-0.4s-0.18-0.4-0.4-0.4c-0.22 0-0.4 0.18-0.4 0.4 0 0.134 0.067 0.259 0.178 0.333l-2.741-1.27c-0.031-0.020-0.066-0.036-0.102-0.047l-0.161-0.075c0.016-0.045 0.025-0.092 0.025-0.141 0-0.22-0.18-0.4-0.4-0.4-0.145 0-0.278 0.078-0.35 0.206l-3.897-1.806 2.791-1.294c0.072 0.061 0.162 0.094 0.256 0.094 0.22 0 0.398-0.177 0.4-0.397zM5.2 15.2c-0.22 0-0.4 0.18-0.4 0.4s0.18 0.4 0.4 0.4c0.22 0 0.4-0.18 0.4-0.4s-0.18-0.4-0.4-0.4zM7.6 15.2c-0.22 0-0.4 0.18-0.4 0.4s0.18 0.4 0.4 0.4c0.22 0 0.4-0.18 0.4-0.4s-0.18-0.4-0.4-0.4zM10 15.2c-0.22 0-0.4 0.18-0.4 0.4s0.18 0.4 0.4 0.4c0.22 0 0.4-0.18 0.4-0.4s-0.18-0.4-0.4-0.4zM22 15.2c-0.22 0-0.4 0.18-0.4 0.4s0.18 0.4 0.4 0.4c0.22 0 0.4-0.18 0.4-0.4s-0.18-0.4-0.4-0.4zM24.4 15.2c-0.22 0-0.4 0.18-0.4 0.4s0.18 0.4 0.4 0.4c0.22 0 0.4-0.18 0.4-0.4s-0.18-0.4-0.4-0.4zM26.8 15.2c-0.22 0-0.4 0.18-0.4 0.4s0.18 0.4 0.4 0.4c0.22 0 0.4-0.18 0.4-0.4s-0.18-0.4-0.4-0.4zM6.4 16.4c-0.22 0-0.4 0.18-0.4 0.4s0.18 0.4 0.4 0.4c0.22 0 0.4-0.18 0.4-0.4s-0.18-0.4-0.4-0.4zM8.8 16.4c-0.22 0-0.4 0.18-0.4 0.4s0.18 0.4 0.4 0.4c0.22 0 0.4-0.18 0.4-0.4s-0.18-0.4-0.4-0.4zM11.2 16.4c-0.22 0-0.4 0.18-0.4 0.4s0.18 0.4 0.4 0.4c0.22 0 0.4-0.18 0.4-0.4s-0.18-0.4-0.4-0.4zM20.8 16.4c-0.22 0-0.4 0.18-0.4 0.4s0.18 0.4 0.4 0.4c0.22 0 0.4-0.18 0.4-0.4s-0.18-0.4-0.4-0.4zM23.2 16.4c-0.22 0-0.4 0.18-0.4 0.4s0.18 0.4 0.4 0.4c0.22 0 0.4-0.18 0.4-0.4s-0.18-0.4-0.4-0.4zM25.6 16.4c-0.22 0-0.4 0.18-0.4 0.4s0.18 0.4 0.4 0.4c0.22 0 0.4-0.18 0.4-0.4s-0.18-0.4-0.4-0.4zM10 17.6c-0.22 0-0.4 0.18-0.4 0.4s0.18 0.4 0.4 0.4c0.22 0 0.4-0.18 0.4-0.4s-0.18-0.4-0.4-0.4zM12.4 17.6c-0.22 0-0.4 0.18-0.4 0.4s0.18 0.4 0.4 0.4c0.22 0 0.4-0.18 0.4-0.4s-0.18-0.4-0.4-0.4zM14.8 17.6c-0.22 0-0.4 0.18-0.4 0.4s0.18 0.4 0.4 0.4c0.22 0 0.4-0.18 0.4-0.4s-0.18-0.4-0.4-0.4zM17.2 17.6c-0.22 0-0.4 0.18-0.4 0.4s0.18 0.4 0.4 0.4c0.22 0 0.4-0.18 0.4-0.4s-0.18-0.4-0.4-0.4zM19.6 17.6c-0.22 0-0.4 0.18-0.4 0.4s0.18 0.4 0.4 0.4c0.22 0 0.4-0.18 0.4-0.4s-0.18-0.4-0.4-0.4zM22 17.6c-0.22 0-0.4 0.18-0.4 0.4s0.18 0.4 0.4 0.4c0.22 0 0.4-0.18 0.4-0.4s-0.18-0.4-0.4-0.4zM13.6 18.8c-0.22 0-0.4 0.18-0.4 0.4s0.18 0.4 0.4 0.4c0.22 0 0.4-0.18 0.4-0.4s-0.18-0.4-0.4-0.4zM16 18.8c-0.22 0-0.4 0.18-0.4 0.4s0.18 0.4 0.4 0.4c0.22 0 0.4-0.18 0.4-0.4s-0.18-0.4-0.4-0.4zM18.4 18.8c-0.22 0-0.4 0.18-0.4 0.4s0.18 0.4 0.4 0.4c0.22 0 0.4-0.18 0.4-0.4s-0.18-0.4-0.4-0.4zM8.012 19.042l7.819 3.62c0.108 0.050 0.23 0.050 0.338 0l7.819-3.62 4.661 2.158-12.648 5.859-12.647-5.859zM14.8 20c-0.22 0-0.4 0.18-0.4 0.4s0.18 0.4 0.4 0.4c0.22 0 0.4-0.18 0.4-0.4s-0.18-0.4-0.4-0.4zM17.2 20c-0.22 0-0.4 0.18-0.4 0.4s0.18 0.4 0.4 0.4c0.22 0 0.4-0.18 0.4-0.4s-0.18-0.4-0.4-0.4z"></path>
</symbol>
<symbol id="icon-less_than" viewBox="0 0 32 32">
<path d="M20.57 4.016l-12.242 11.25c-0.211 0.188-0.328 0.453-0.328 0.734s0.117 0.547 0.328 0.734l12.242 11.258 1.359-1.484-11.445-10.508 11.445-10.516z"></path>
</symbol>
<symbol id="icon-logo" viewBox="0 0 45 32">
<path  d="M35.817 15.938c0-1.747-2.188-3.403-5.542-4.429 0.774-3.419 0.43-6.139-1.086-7.010-0.349-0.204-0.758-0.301-1.204-0.301v1.199c0.247 0 0.446 0.048 0.613 0.14 0.731 0.419 1.048 2.016 0.801 4.069-0.059 0.505-0.156 1.037-0.274 1.58-1.054-0.258-2.204-0.457-3.413-0.586-0.726-0.994-1.478-1.898-2.236-2.688 1.752-1.629 3.397-2.521 4.515-2.521v-1.199c-1.478 0-3.413 1.054-5.37 2.881-1.957-1.817-3.892-2.86-5.37-2.86v1.199c1.113 0 2.763 0.887 4.515 2.505-0.753 0.79-1.505 1.688-2.22 2.682-1.215 0.129-2.365 0.328-3.419 0.591-0.124-0.538-0.215-1.059-0.28-1.559-0.253-2.053 0.059-3.65 0.785-4.075 0.161-0.097 0.371-0.14 0.618-0.14v-1.199c-0.452 0-0.86 0.097-1.215 0.301-1.511 0.871-1.849 3.585-1.070 6.993-3.344 1.032-5.521 2.682-5.521 4.424 0 1.747 2.188 3.403 5.542 4.429-0.774 3.419-0.43 6.139 1.086 7.010 0.349 0.204 0.758 0.301 1.209 0.301 1.478 0 3.413-1.054 5.37-2.881 1.957 1.817 3.892 2.86 5.37 2.86 0.452 0 0.86-0.097 1.215-0.301 1.511-0.871 1.849-3.585 1.070-6.993 3.333-1.027 5.51-2.682 5.51-4.424zM28.818 12.353c-0.199 0.693-0.446 1.408-0.726 2.123-0.22-0.43-0.452-0.86-0.704-1.29-0.247-0.43-0.511-0.849-0.774-1.258 0.763 0.113 1.5 0.253 2.204 0.425zM26.356 18.078c-0.419 0.726-0.849 1.414-1.295 2.053-0.801 0.070-1.613 0.108-2.43 0.108-0.812 0-1.623-0.038-2.419-0.102-0.446-0.64-0.882-1.322-1.301-2.043-0.409-0.704-0.779-1.419-1.118-2.139 0.333-0.72 0.71-1.441 1.113-2.145 0.419-0.726 0.849-1.414 1.295-2.053 0.801-0.070 1.613-0.107 2.43-0.107 0.812 0 1.623 0.038 2.419 0.102 0.446 0.64 0.882 1.322 1.301 2.043 0.409 0.704 0.779 1.419 1.118 2.139-0.339 0.72-0.71 1.441-1.113 2.145zM28.092 17.379c0.29 0.72 0.538 1.441 0.742 2.139-0.704 0.172-1.446 0.317-2.215 0.43 0.263-0.414 0.527-0.839 0.774-1.274 0.247-0.43 0.478-0.865 0.699-1.295zM22.641 23.114c-0.5-0.516-1-1.091-1.494-1.72 0.484 0.021 0.978 0.038 1.478 0.038 0.505 0 1.005-0.011 1.494-0.038-0.484 0.629-0.984 1.204-1.478 1.72zM18.642 19.948c-0.763-0.113-1.5-0.253-2.204-0.425 0.199-0.693 0.446-1.408 0.726-2.123 0.22 0.43 0.452 0.86 0.704 1.29s0.511 0.849 0.774 1.258zM22.614 8.762c0.5 0.516 1 1.091 1.494 1.72-0.484-0.021-0.978-0.038-1.478-0.038-0.505 0-1.005 0.011-1.494 0.038 0.484-0.629 0.984-1.204 1.478-1.72zM18.637 11.928c-0.263 0.414-0.527 0.839-0.774 1.274-0.247 0.43-0.478 0.86-0.699 1.29-0.29-0.72-0.538-1.441-0.742-2.139 0.704-0.167 1.446-0.312 2.215-0.425zM13.772 18.658c-1.903-0.812-3.134-1.876-3.134-2.72s1.231-1.914 3.134-2.72c0.462-0.199 0.968-0.376 1.489-0.543 0.306 1.054 0.71 2.15 1.209 3.274-0.495 1.118-0.892 2.209-1.193 3.258-0.532-0.167-1.037-0.349-1.505-0.548zM16.664 26.34c-0.731-0.419-1.048-2.016-0.801-4.069 0.059-0.505 0.156-1.037 0.274-1.58 1.054 0.258 2.204 0.457 3.413 0.586 0.726 0.994 1.478 1.898 2.236 2.688-1.752 1.629-3.397 2.521-4.515 2.521-0.242-0.005-0.446-0.054-0.607-0.145zM29.414 22.244c0.253 2.053-0.059 3.65-0.785 4.075-0.161 0.097-0.371 0.14-0.618 0.14-1.113 0-2.763-0.887-4.515-2.505 0.753-0.79 1.505-1.688 2.22-2.682 1.215-0.129 2.365-0.328 3.419-0.591 0.124 0.543 0.22 1.064 0.28 1.564zM31.484 18.658c-0.462 0.199-0.968 0.376-1.489 0.543-0.306-1.054-0.71-2.15-1.209-3.274 0.495-1.118 0.892-2.209 1.193-3.258 0.532 0.167 1.037 0.349 1.511 0.548 1.903 0.812 3.134 1.876 3.134 2.72-0.005 0.844-1.236 1.914-3.139 2.72z"></path>
<path  d="M25.082 15.938c0 1.357-1.1 2.457-2.457 2.457s-2.457-1.1-2.457-2.457c0-1.357 1.1-2.457 2.457-2.457s2.457 1.1 2.457 2.457z"></path>
</symbol>
<symbol id="icon-more" viewBox="0 0 32 32">
<path d="M3.636 12.121c-2.008 0-3.636 1.629-3.636 3.636s1.629 3.636 3.636 3.636 3.636-1.629 3.636-3.636c0-2.008-1.629-3.636-3.636-3.636zM15.758 12.121c-2.008 0-3.636 1.629-3.636 3.636s1.629 3.636 3.636 3.636c2.007 0 3.636-1.629 3.636-3.636s-1.629-3.636-3.636-3.636zM27.879 12.121c-2.007 0-3.636 1.629-3.636 3.636s1.629 3.636 3.636 3.636c2.008 0 3.636-1.629 3.636-3.636s-1.629-3.636-3.636-3.636z"></path>
</symbol>
<symbol id="icon-more_than" viewBox="0 0 32 32">
<path d="M11.422 4.016l-1.344 1.469 11.445 10.516-11.445 10.508 1.344 1.484 12.258-11.258c0.203-0.188 0.32-0.453 0.32-0.734s-0.117-0.547-0.32-0.734z"></path>
</symbol>
<symbol id="icon-new_post" viewBox="0 0 32 32">
<path d="M5.333 5.333c-1.474 0-2.667 1.193-2.667 2.667v16c0 1.474 1.193 2.667 2.667 2.667h21.333c1.474 0 2.667-1.193 2.667-2.667v-16c0-1.474-1.193-2.667-2.667-2.667zM5.333 8h21.333v1.333l-10.667 6.667-10.667-6.667zM5.333 12l10.667 6.667 10.667-6.667v12h-21.333z"></path>
</symbol>
<symbol id="icon-read" viewBox="0 0 32 32">
<path d="M2.667 5.333v18.667c0 1.474 1.193 2.667 2.667 2.667h8.37c0.464 0.792 1.313 1.333 2.297 1.333s1.833-0.542 2.297-1.333h8.37c1.474 0 2.667-1.193 2.667-2.667v-18.667h-10.667c-1.031 0-1.958 0.401-2.667 1.042-0.708-0.641-1.635-1.042-2.667-1.042zM5.333 8h8c0.734 0 1.333 0.599 1.333 1.333v14.667h-9.333zM18.667 8h8v16h-9.333v-14.667c0-0.734 0.599-1.333 1.333-1.333z"></path>
</symbol>
<symbol id="icon-search" viewBox="0 0 32 32">
<path d="M12 2.667c-5.141 0-9.333 4.193-9.333 9.333s4.193 9.333 9.333 9.333c2.328 0 4.458-0.87 6.099-2.292l0.568 0.568v1.724l8 8 2.667-2.667-8-8h-1.724l-0.568-0.568c1.422-1.641 2.292-3.771 2.292-6.099 0-5.141-4.193-9.333-9.333-9.333zM12 5.333c3.698 0 6.667 2.969 6.667 6.667s-2.969 6.667-6.667 6.667c-3.698 0-6.667-2.969-6.667-6.667s2.969-6.667 6.667-6.667z"></path>
</symbol>
<symbol id="icon-user" viewBox="0 0 32 32">
<path d="M16 4c-2.948 0-5.333 2.385-5.333 5.333s2.385 5.333 5.333 5.333c2.948 0 5.333-2.385 5.333-5.333s-2.385-5.333-5.333-5.333zM11.75 19.188c-3.76 0.833-7.75 2.661-7.75 5.479v3.333h24v-3.333c0-2.818-3.99-4.646-7.75-5.479-0.969 1.297-2.505 2.146-4.25 2.146s-3.281-0.849-4.25-2.146z"></path>
</symbol>
<symbol id="icon-visible" viewBox="0 0 32 32">
<path d="M16 8c-8.336 0-14.75 7.344-14.75 7.344l-0.594 0.656 0.594 0.656c0 0 5.848 6.668 13.625 7.281 0.371 0.047 0.742 0.063 1.125 0.063s0.754-0.016 1.125-0.063c7.777-0.613 13.625-7.281 13.625-7.281l0.594-0.656-0.594-0.656c0 0-6.414-7.344-14.75-7.344zM16 10c2.203 0 4.234 0.602 6 1.406 0.637 1.055 1 2.27 1 3.594 0 3.613-2.711 6.582-6.219 6.969-0.020 0.004-0.043-0.004-0.063 0-0.238 0.012-0.477 0.031-0.719 0.031-0.266 0-0.523-0.016-0.781-0.031-3.508-0.387-6.219-3.355-6.219-6.969 0-1.305 0.352-2.52 0.969-3.563h-0.031c1.781-0.82 3.836-1.438 6.063-1.438zM16 12c-1.656 0-3 1.344-3 3s1.344 3 3 3c1.656 0 3-1.344 3-3s-1.344-3-3-3zM7.25 12.938c-0.156 0.672-0.25 1.348-0.25 2.063 0 1.754 0.5 3.395 1.375 4.781-2.52-1.457-4.27-3.195-4.844-3.781 0.48-0.492 1.82-1.797 3.719-3.063zM24.75 12.938c1.898 1.266 3.238 2.57 3.719 3.063-0.574 0.586-2.324 2.324-4.844 3.781 0.875-1.387 1.375-3.027 1.375-4.781 0-0.715-0.094-1.398-0.25-2.063z"></path>
</symbol>
</defs>
</svg>
