<!-- Generated by IcoMoon.io -->
<svg version="1.1" xmlns="http://www.w3.org/2000/svg" width="32" height="32" viewBox="0 0 32 32">
<title>company</title>
<path d="M2.667 4v24h26.667v-18.667h-13.333v-5.333zM5.333 6.667h2.667v2.667h-2.667zM10.667 6.667h2.667v2.667h-2.667zM5.333 12h2.667v2.667h-2.667zM10.667 12h2.667v2.667h-2.667zM16 12h10.667v13.333h-10.667v-2.667h2.667v-2.667h-2.667v-2.667h2.667v-2.667h-2.667zM21.333 14.667v2.667h2.667v-2.667zM5.333 17.333h2.667v2.667h-2.667zM10.667 17.333h2.667v2.667h-2.667zM21.333 20v2.667h2.667v-2.667zM5.333 22.667h2.667v2.667h-2.667zM10.667 22.667h2.667v2.667h-2.667z"></path>
</svg>
