<!-- Generated by IcoMoon.io -->
<svg version="1.1" xmlns="http://www.w3.org/2000/svg" width="32" height="32" viewBox="0 0 32 32">
<title>layers</title>
<path d="M16.012 4.1c-0.061-0.002-0.123 0.011-0.181 0.037l-13.6 6.3c-0.141 0.064-0.231 0.206-0.231 0.363s0.091 0.298 0.231 0.363l4.83 2.238-4.83 2.238c-0.141 0.064-0.231 0.206-0.231 0.363s0.091 0.298 0.231 0.363l4.83 2.238-4.83 2.238c-0.141 0.064-0.231 0.206-0.231 0.363s0.091 0.298 0.231 0.363l13.6 6.3c0.108 0.050 0.23 0.050 0.338 0l13.6-6.3c0.141-0.064 0.231-0.206 0.231-0.363s-0.091-0.298-0.231-0.363l-4.83-2.238 4.83-2.238c0.141-0.064 0.231-0.206 0.231-0.363s-0.091-0.298-0.231-0.363l-4.83-2.238 4.83-2.238c0.141-0.064 0.231-0.206 0.231-0.363s-0.091-0.298-0.231-0.363l-13.6-6.3c-0.050-0.023-0.102-0.036-0.156-0.037zM16 4.941l12.648 5.859-12.648 5.859-7.762-3.597c-0.031-0.020-0.066-0.036-0.102-0.047l-4.783-2.216zM8.012 13.842l0.536 0.247c-0.094 0.077-0.148 0.191-0.148 0.311 0 0.22 0.18 0.4 0.4 0.4s0.4-0.18 0.4-0.4c0-0.003 0-0.006 0-0.008l2.813 1.302c0.042 0.18 0.203 0.306 0.387 0.306 0.063 0 0.123-0.014 0.18-0.044l0.966 0.448c-0.197 0.027-0.345 0.195-0.345 0.395 0 0.22 0.18 0.4 0.4 0.4s0.4-0.18 0.4-0.4c0-0.077-0.022-0.15-0.063-0.214l1.894 0.877c0.108 0.050 0.23 0.050 0.338 0l1.894-0.877c-0.041 0.064-0.063 0.139-0.063 0.214 0 0.22 0.18 0.4 0.4 0.4s0.4-0.18 0.4-0.4c0-0.2-0.147-0.369-0.344-0.395l0.964-0.448c0.056 0.030 0.117 0.044 0.18 0.044 0.184 0 0.345-0.127 0.387-0.306l2.813-1.302c0 0.002 0 0.005 0 0.008 0 0.22 0.18 0.4 0.4 0.4s0.4-0.18 0.4-0.4c0-0.12-0.055-0.234-0.148-0.311l0.536-0.247 1.212 0.561c0.002 0.22 0.18 0.397 0.4 0.397 0.094 0 0.184-0.033 0.256-0.094l2.792 1.294-3.898 1.806c-0.072-0.127-0.205-0.206-0.35-0.206-0.22 0-0.4 0.18-0.4 0.4 0 0.048 0.009 0.097 0.027 0.142l-0.22 0.102-2.786 1.289c0.113-0.073 0.18-0.198 0.18-0.333 0-0.22-0.18-0.4-0.4-0.4s-0.4 0.18-0.4 0.4c0 0.22 0.18 0.4 0.4 0.4 0.039 0 0.077-0.006 0.113-0.017l-1.073 0.498c-0.069-0.053-0.153-0.081-0.239-0.081-0.212 0-0.387 0.166-0.4 0.377l-2.808 1.3c0.005-0.025 0.008-0.050 0.008-0.077 0-0.22-0.18-0.4-0.4-0.4s-0.4 0.18-0.4 0.4c0 0.027 0.003 0.052 0.008 0.077l-2.809-1.302c-0.012-0.209-0.188-0.375-0.398-0.375-0.086 0-0.17 0.028-0.239 0.081l-1.073-0.498c0.036 0.011 0.075 0.017 0.113 0.017 0.22 0 0.4-0.18 0.4-0.4s-0.18-0.4-0.4-0.4c-0.22 0-0.4 0.18-0.4 0.4 0 0.134 0.067 0.259 0.178 0.333l-2.741-1.27c-0.031-0.020-0.066-0.036-0.102-0.047l-0.161-0.075c0.016-0.045 0.025-0.092 0.025-0.141 0-0.22-0.18-0.4-0.4-0.4-0.145 0-0.278 0.078-0.35 0.206l-3.897-1.806 2.791-1.294c0.072 0.061 0.162 0.094 0.256 0.094 0.22 0 0.398-0.177 0.4-0.397zM5.2 15.2c-0.22 0-0.4 0.18-0.4 0.4s0.18 0.4 0.4 0.4c0.22 0 0.4-0.18 0.4-0.4s-0.18-0.4-0.4-0.4zM7.6 15.2c-0.22 0-0.4 0.18-0.4 0.4s0.18 0.4 0.4 0.4c0.22 0 0.4-0.18 0.4-0.4s-0.18-0.4-0.4-0.4zM10 15.2c-0.22 0-0.4 0.18-0.4 0.4s0.18 0.4 0.4 0.4c0.22 0 0.4-0.18 0.4-0.4s-0.18-0.4-0.4-0.4zM22 15.2c-0.22 0-0.4 0.18-0.4 0.4s0.18 0.4 0.4 0.4c0.22 0 0.4-0.18 0.4-0.4s-0.18-0.4-0.4-0.4zM24.4 15.2c-0.22 0-0.4 0.18-0.4 0.4s0.18 0.4 0.4 0.4c0.22 0 0.4-0.18 0.4-0.4s-0.18-0.4-0.4-0.4zM26.8 15.2c-0.22 0-0.4 0.18-0.4 0.4s0.18 0.4 0.4 0.4c0.22 0 0.4-0.18 0.4-0.4s-0.18-0.4-0.4-0.4zM6.4 16.4c-0.22 0-0.4 0.18-0.4 0.4s0.18 0.4 0.4 0.4c0.22 0 0.4-0.18 0.4-0.4s-0.18-0.4-0.4-0.4zM8.8 16.4c-0.22 0-0.4 0.18-0.4 0.4s0.18 0.4 0.4 0.4c0.22 0 0.4-0.18 0.4-0.4s-0.18-0.4-0.4-0.4zM11.2 16.4c-0.22 0-0.4 0.18-0.4 0.4s0.18 0.4 0.4 0.4c0.22 0 0.4-0.18 0.4-0.4s-0.18-0.4-0.4-0.4zM20.8 16.4c-0.22 0-0.4 0.18-0.4 0.4s0.18 0.4 0.4 0.4c0.22 0 0.4-0.18 0.4-0.4s-0.18-0.4-0.4-0.4zM23.2 16.4c-0.22 0-0.4 0.18-0.4 0.4s0.18 0.4 0.4 0.4c0.22 0 0.4-0.18 0.4-0.4s-0.18-0.4-0.4-0.4zM25.6 16.4c-0.22 0-0.4 0.18-0.4 0.4s0.18 0.4 0.4 0.4c0.22 0 0.4-0.18 0.4-0.4s-0.18-0.4-0.4-0.4zM10 17.6c-0.22 0-0.4 0.18-0.4 0.4s0.18 0.4 0.4 0.4c0.22 0 0.4-0.18 0.4-0.4s-0.18-0.4-0.4-0.4zM12.4 17.6c-0.22 0-0.4 0.18-0.4 0.4s0.18 0.4 0.4 0.4c0.22 0 0.4-0.18 0.4-0.4s-0.18-0.4-0.4-0.4zM14.8 17.6c-0.22 0-0.4 0.18-0.4 0.4s0.18 0.4 0.4 0.4c0.22 0 0.4-0.18 0.4-0.4s-0.18-0.4-0.4-0.4zM17.2 17.6c-0.22 0-0.4 0.18-0.4 0.4s0.18 0.4 0.4 0.4c0.22 0 0.4-0.18 0.4-0.4s-0.18-0.4-0.4-0.4zM19.6 17.6c-0.22 0-0.4 0.18-0.4 0.4s0.18 0.4 0.4 0.4c0.22 0 0.4-0.18 0.4-0.4s-0.18-0.4-0.4-0.4zM22 17.6c-0.22 0-0.4 0.18-0.4 0.4s0.18 0.4 0.4 0.4c0.22 0 0.4-0.18 0.4-0.4s-0.18-0.4-0.4-0.4zM13.6 18.8c-0.22 0-0.4 0.18-0.4 0.4s0.18 0.4 0.4 0.4c0.22 0 0.4-0.18 0.4-0.4s-0.18-0.4-0.4-0.4zM16 18.8c-0.22 0-0.4 0.18-0.4 0.4s0.18 0.4 0.4 0.4c0.22 0 0.4-0.18 0.4-0.4s-0.18-0.4-0.4-0.4zM18.4 18.8c-0.22 0-0.4 0.18-0.4 0.4s0.18 0.4 0.4 0.4c0.22 0 0.4-0.18 0.4-0.4s-0.18-0.4-0.4-0.4zM8.012 19.042l7.819 3.62c0.108 0.050 0.23 0.050 0.338 0l7.819-3.62 4.661 2.158-12.648 5.859-12.647-5.859zM14.8 20c-0.22 0-0.4 0.18-0.4 0.4s0.18 0.4 0.4 0.4c0.22 0 0.4-0.18 0.4-0.4s-0.18-0.4-0.4-0.4zM17.2 20c-0.22 0-0.4 0.18-0.4 0.4s0.18 0.4 0.4 0.4c0.22 0 0.4-0.18 0.4-0.4s-0.18-0.4-0.4-0.4z"></path>
</svg>
