<!-- Generated by IcoMoon.io -->
<svg version="1.1" xmlns="http://www.w3.org/2000/svg" width="45" height="32" viewBox="0 0 45 32">
<title>logo</title>
<path fill="#61dafb" d="M35.817 15.938c0-1.747-2.188-3.403-5.542-4.429 0.774-3.419 0.43-6.139-1.086-7.010-0.349-0.204-0.758-0.301-1.204-0.301v1.199c0.247 0 0.446 0.048 0.613 0.14 0.731 0.419 1.048 2.016 0.801 4.069-0.059 0.505-0.156 1.037-0.274 1.58-1.054-0.258-2.204-0.457-3.413-0.586-0.726-0.994-1.478-1.898-2.236-2.688 1.752-1.629 3.397-2.521 4.515-2.521v-1.199c-1.478 0-3.413 1.054-5.37 2.881-1.957-1.817-3.892-2.86-5.37-2.86v1.199c1.113 0 2.763 0.887 4.515 2.505-0.753 0.79-1.505 1.688-2.22 2.682-1.215 0.129-2.365 0.328-3.419 0.591-0.124-0.538-0.215-1.059-0.28-1.559-0.253-2.053 0.059-3.65 0.785-4.075 0.161-0.097 0.371-0.14 0.618-0.14v-1.199c-0.452 0-0.86 0.097-1.215 0.301-1.511 0.871-1.849 3.585-1.070 6.993-3.344 1.032-5.521 2.682-5.521 4.424 0 1.747 2.188 3.403 5.542 4.429-0.774 3.419-0.43 6.139 1.086 7.010 0.349 0.204 0.758 0.301 1.209 0.301 1.478 0 3.413-1.054 5.37-2.881 1.957 1.817 3.892 2.86 5.37 2.86 0.452 0 0.86-0.097 1.215-0.301 1.511-0.871 1.849-3.585 1.070-6.993 3.333-1.027 5.51-2.682 5.51-4.424zM28.818 12.353c-0.199 0.693-0.446 1.408-0.726 2.123-0.22-0.43-0.452-0.86-0.704-1.29-0.247-0.43-0.511-0.849-0.774-1.258 0.763 0.113 1.5 0.253 2.204 0.425zM26.356 18.078c-0.419 0.726-0.849 1.414-1.295 2.053-0.801 0.070-1.613 0.108-2.43 0.108-0.812 0-1.623-0.038-2.419-0.102-0.446-0.64-0.882-1.322-1.301-2.043-0.409-0.704-0.779-1.419-1.118-2.139 0.333-0.72 0.71-1.441 1.113-2.145 0.419-0.726 0.849-1.414 1.295-2.053 0.801-0.070 1.613-0.107 2.43-0.107 0.812 0 1.623 0.038 2.419 0.102 0.446 0.64 0.882 1.322 1.301 2.043 0.409 0.704 0.779 1.419 1.118 2.139-0.339 0.72-0.71 1.441-1.113 2.145zM28.092 17.379c0.29 0.72 0.538 1.441 0.742 2.139-0.704 0.172-1.446 0.317-2.215 0.43 0.263-0.414 0.527-0.839 0.774-1.274 0.247-0.43 0.478-0.865 0.699-1.295zM22.641 23.114c-0.5-0.516-1-1.091-1.494-1.72 0.484 0.021 0.978 0.038 1.478 0.038 0.505 0 1.005-0.011 1.494-0.038-0.484 0.629-0.984 1.204-1.478 1.72zM18.642 19.948c-0.763-0.113-1.5-0.253-2.204-0.425 0.199-0.693 0.446-1.408 0.726-2.123 0.22 0.43 0.452 0.86 0.704 1.29s0.511 0.849 0.774 1.258zM22.614 8.762c0.5 0.516 1 1.091 1.494 1.72-0.484-0.021-0.978-0.038-1.478-0.038-0.505 0-1.005 0.011-1.494 0.038 0.484-0.629 0.984-1.204 1.478-1.72zM18.637 11.928c-0.263 0.414-0.527 0.839-0.774 1.274-0.247 0.43-0.478 0.86-0.699 1.29-0.29-0.72-0.538-1.441-0.742-2.139 0.704-0.167 1.446-0.312 2.215-0.425zM13.772 18.658c-1.903-0.812-3.134-1.876-3.134-2.72s1.231-1.914 3.134-2.72c0.462-0.199 0.968-0.376 1.489-0.543 0.306 1.054 0.71 2.15 1.209 3.274-0.495 1.118-0.892 2.209-1.193 3.258-0.532-0.167-1.037-0.349-1.505-0.548zM16.664 26.34c-0.731-0.419-1.048-2.016-0.801-4.069 0.059-0.505 0.156-1.037 0.274-1.58 1.054 0.258 2.204 0.457 3.413 0.586 0.726 0.994 1.478 1.898 2.236 2.688-1.752 1.629-3.397 2.521-4.515 2.521-0.242-0.005-0.446-0.054-0.607-0.145zM29.414 22.244c0.253 2.053-0.059 3.65-0.785 4.075-0.161 0.097-0.371 0.14-0.618 0.14-1.113 0-2.763-0.887-4.515-2.505 0.753-0.79 1.505-1.688 2.22-2.682 1.215-0.129 2.365-0.328 3.419-0.591 0.124 0.543 0.22 1.064 0.28 1.564zM31.484 18.658c-0.462 0.199-0.968 0.376-1.489 0.543-0.306-1.054-0.71-2.15-1.209-3.274 0.495-1.118 0.892-2.209 1.193-3.258 0.532 0.167 1.037 0.349 1.511 0.548 1.903 0.812 3.134 1.876 3.134 2.72-0.005 0.844-1.236 1.914-3.139 2.72z"></path>
<path fill="#61dafb" d="M25.082 15.938c0 1.357-1.1 2.457-2.457 2.457s-2.457-1.1-2.457-2.457c0-1.357 1.1-2.457 2.457-2.457s2.457 1.1 2.457 2.457z"></path>
</svg>
