<!-- Generated by IcoMoon.io -->
<svg version="1.1" xmlns="http://www.w3.org/2000/svg" width="32" height="32" viewBox="0 0 32 32">
<title>more</title>
<path d="M3.636 12.121c-2.008 0-3.636 1.629-3.636 3.636s1.629 3.636 3.636 3.636 3.636-1.629 3.636-3.636c0-2.008-1.629-3.636-3.636-3.636zM15.758 12.121c-2.008 0-3.636 1.629-3.636 3.636s1.629 3.636 3.636 3.636c2.007 0 3.636-1.629 3.636-3.636s-1.629-3.636-3.636-3.636zM27.879 12.121c-2.007 0-3.636 1.629-3.636 3.636s1.629 3.636 3.636 3.636c2.008 0 3.636-1.629 3.636-3.636s-1.629-3.636-3.636-3.636z"></path>
</svg>
