<!-- Generated by IcoMoon.io -->
<svg version="1.1" xmlns="http://www.w3.org/2000/svg" width="32" height="32" viewBox="0 0 32 32">
<title>read</title>
<path d="M2.667 5.333v18.667c0 1.474 1.193 2.667 2.667 2.667h8.37c0.464 0.792 1.313 1.333 2.297 1.333s1.833-0.542 2.297-1.333h8.37c1.474 0 2.667-1.193 2.667-2.667v-18.667h-10.667c-1.031 0-1.958 0.401-2.667 1.042-0.708-0.641-1.635-1.042-2.667-1.042zM5.333 8h8c0.734 0 1.333 0.599 1.333 1.333v14.667h-9.333zM18.667 8h8v16h-9.333v-14.667c0-0.734 0.599-1.333 1.333-1.333z"></path>
</svg>
