<!-- Generated by IcoMoon.io -->
<svg version="1.1" xmlns="http://www.w3.org/2000/svg" width="32" height="32" viewBox="0 0 32 32">
<title>search</title>
<path d="M12 2.667c-5.141 0-9.333 4.193-9.333 9.333s4.193 9.333 9.333 9.333c2.328 0 4.458-0.87 6.099-2.292l0.568 0.568v1.724l8 8 2.667-2.667-8-8h-1.724l-0.568-0.568c1.422-1.641 2.292-3.771 2.292-6.099 0-5.141-4.193-9.333-9.333-9.333zM12 5.333c3.698 0 6.667 2.969 6.667 6.667s-2.969 6.667-6.667 6.667c-3.698 0-6.667-2.969-6.667-6.667s2.969-6.667 6.667-6.667z"></path>
</svg>
