<!-- Generated by IcoMoon.io -->
<svg version="1.1" xmlns="http://www.w3.org/2000/svg" width="32" height="32" viewBox="0 0 32 32">
<title>visible</title>
<path d="M16 8c-8.336 0-14.75 7.344-14.75 7.344l-0.594 0.656 0.594 0.656c0 0 5.848 6.668 13.625 7.281 0.371 0.047 0.742 0.063 1.125 0.063s0.754-0.016 1.125-0.063c7.777-0.613 13.625-7.281 13.625-7.281l0.594-0.656-0.594-0.656c0 0-6.414-7.344-14.75-7.344zM16 10c2.203 0 4.234 0.602 6 1.406 0.637 1.055 1 2.27 1 3.594 0 3.613-2.711 6.582-6.219 6.969-0.020 0.004-0.043-0.004-0.063 0-0.238 0.012-0.477 0.031-0.719 0.031-0.266 0-0.523-0.016-0.781-0.031-3.508-0.387-6.219-3.355-6.219-6.969 0-1.305 0.352-2.52 0.969-3.563h-0.031c1.781-0.82 3.836-1.438 6.063-1.438zM16 12c-1.656 0-3 1.344-3 3s1.344 3 3 3c1.656 0 3-1.344 3-3s-1.344-3-3-3zM7.25 12.938c-0.156 0.672-0.25 1.348-0.25 2.063 0 1.754 0.5 3.395 1.375 4.781-2.52-1.457-4.27-3.195-4.844-3.781 0.48-0.492 1.82-1.797 3.719-3.063zM24.75 12.938c1.898 1.266 3.238 2.57 3.719 3.063-0.574 0.586-2.324 2.324-4.844 3.781 0.875-1.387 1.375-3.027 1.375-4.781 0-0.715-0.094-1.398-0.25-2.063z"></path>
</svg>
